# xmcd
#
# Track frame offsets:
#	150
#	21060
#	38083
#	59544
#	86151
#	102468
#	123335
#	142337
#	166633
#
# Disc length: 2574 seconds
#
# Revision: 1
# Processed by: cddbd v1.5.2PL0 Copyright (c) Steve Scherf et al.
# Submitted via: audiograbber 1.83.01
#
DISCID=780a0c09
DTITLE=Echoes of Devastation - My Cold Reign
DYEAR=2008
DGENRE=Metal
TTITLE0=My Cold Reign
TTITLE1=Living Eyes are Blind
TTITLE2=Letters of Sorrow
TTITLE3=Hate
TTITLE4=Free Fall
TTITLE5=Rising Mind
TTITLE6=Castle of Insanity
TTITLE7=Servant of the Reign
TTITLE8=Times of Depression	
EXTD=
EXTT0=
EXTT1=
EXTT2=
EXTT3=
EXTT4=
EXTT5=
EXTT6=
EXTT7=
EXTT8=
PLAYORDER=
